# xmcd
#
# Track frame offsets: 
#        150
#        17398
#        30754
#        48696
#        69230
#        87629
#        101069
#        115388
#        126991
#        139618
#        153732
#        165543
#        178154
#        195941
#        205547
#        219060
#        231623
#        248398
#        268713
#        278614
#        289547
#        304668
#
# Disc length: 4172 seconds
#
# Revision: 0
# Processed by: cddbd v1.5.2PL0 Copyright (c) Steve Scherf et al.
# Submitted via: ExactAudioCopy v0.99pb4
#
DISCID=2b104a16
DTITLE=Various Artist - Paul Kuhn, Hugo Strasser, Max Greger - Die Deutschen 
DTITLE=Meister Des Swing CD4 - Die GroßE Party
DYEAR=2007
DGENRE=Swing
TTITLE0=Max Greger-Big Band - Oh Happy Day
TTITLE1=Hugo Strasser - Hello Again
TTITLE2=Hugo Strasser - Medley: Sail Along Silvery Moon (Eine Reise In
TTITLE2=s Glück)\\ Santo Domingo
TTITLE3=Max Greger-Big Band - Medley: And The Beat Goes On\\Lambeth-Wa
TTITLE3=lk\\Land Of 1000 Dances\\Also Sprach Zarathustra
TTITLE4=Hugo Strasser, Klarinette - Mucho, Mucho, Mucho
TTITLE5=Paul Kuhn - Amor, Amor, Amor
TTITLE6=Max Greger - Memory
TTITLE7=Max Greger - Have You Met Miss Jones
TTITLE8=Hugo Strasser and Hot Five - Volare
TTITLE9=Max Greger-Big Band - Medley: La Cumparsita\\Original Charlest
TTITLE9=on\\Red Roses For A Blue Lady\\Mr. Antony's Boogie
TTITLE10=Paul Kuhn - Gigi Hat's Mir Angetan
TTITLE11=Hugo Strasser - Sing Mit Mir
TTITLE12=Max Greger - Jive Connie
TTITLE13=Max Greger - Tequila
TTITLE14=Hugo Strasser - L.O.V.E.
TTITLE15=Paul Kuhn - Heut Geh Ich Nicht Nach Hause (Heut Geh Ich Nicht
TTITLE15=Nach Hause)
TTITLE16=Max Greger-Big Band - Medley: Rumba Anna\\Harry Lime Theme\\A
TTITLE16=bends In Der Taverne\\Mambo Jambo
TTITLE17=Hugo Strasser - Quizas, Quizas, Quizas
TTITLE18=Hugo Strasser - Ausgerechnet Bananen (Yes! We Have No Bananas
TTITLE18=)
TTITLE19=Paul Kuhn - Abends Muss Ich Tanzen
TTITLE20=Hugo Strasser - Adios Amor
TTITLE21=Max Greger-Big Band - Medley: Sag Beim Abschied Leise Servus\\
TTITLE21=Auf Wiedersehn\\Der Wind Hat Mir Ein Lied Erzählt
EXTD=
EXTT0=
EXTT1=
EXTT2=
EXTT3=
EXTT4=
EXTT5=
EXTT6=
EXTT7=
EXTT8=
EXTT9=
EXTT10=
EXTT11=
EXTT12=
EXTT13=
EXTT14=
EXTT15=
EXTT16=
EXTT17=
EXTT18=
EXTT19=
EXTT20=
EXTT21=
PLAYORDER=
